<svg xmlns="http://www.w3.org/2000/svg" id="Layer_1" fill="#0d52bf" data-name="Layer 1" version="1.1" viewBox="0 0 716.56 292.44">
  <defs id="defs835"/>
  <path id="path839" d="M156 228.52v58.59H0V20.76h60.88v207.76Z" class="cls-1"/>
  <path id="path841" d="M271.62 241.45c15.6 0 28.92-6.08 36.53-14.46l45.66 26.26c-18.65 25.87-46.8 39.19-83 39.19-65.07 0-105.4-43.76-105.4-100.45 0-56.69 41.21-100.46 101.3-100.46 55.55 0 96.65 43 96.65 100.46a110.75 110.75 0 0 1-2.28 22.83H226c7.23 19.78 24.73 26.63 45.62 26.63zm35-69.25c-6.08-22.07-23.21-30.06-40.33-30.06-21.69 0-36.15 10.66-41.47 30.06z" class="cls-1"/>
  <path id="path843" d="M531.9 230.04c0 43.75-38 62.4-79.14 62.4-38 0-67-14.46-81.81-45.28L420.42 219c4.94 14.46 15.6 22.45 32.34 22.45 13.7 0 20.54-4.18 20.54-11.79 0-20.93-93.6-9.9-93.6-75.72 0-41.48 35-62.41 74.58-62.41 30.82 0 58.22 13.7 74.2 40.72l-48.71 26.25c-5.33-9.89-12.93-16.74-25.49-16.74-9.89 0-16 3.81-16 10.65.02 21.69 93.62 7.23 93.62 77.63z" class="cls-1"/>
  <path id="path845" d="M556.62 9.35h57.07v277.76h-57.07z" class="cls-1"/>
  <path id="path847" d="M651.73 96.86h57.08v190.25h-57.08z" class="cls-1"/>
  <circle id="circle849" cx="680.27" cy="36.29" r="36.29" class="cls-1"/>
</svg>
