<svg xmlns="http://www.w3.org/2000/svg" xml:space="preserve" id="Слой_1" version="1.1" viewBox="0 0 128 128">
  <path fill="#e4e7e7" d="M112 62.1c-.1-1.4-.2-2.7-.3-4.1l2.6-2.6c11.5-11.5 11.5-30.3 0-41.7-11.5-11.5-30.2-11.5-41.7 0L70 16.3c-1.3-.2-2.7-.3-4.1-.3l4.5-4.5c12.7-12.7 33.4-12.8 46.1 0 12.7 12.7 12.7 33.4 0 46.1l-4.5 4.5zM58.1 16.4l-2.6-2.6C44 2.3 25.2 2.3 13.8 13.8 2.2 25.2 2.2 44 13.8 55.5l2.6 2.6c-.2 1.3-.3 2.7-.3 4.1l-4.5-4.5C-1.1 45-1.2 24.3 11.6 11.6 24.3-1.1 45-1.1 57.7 11.6l4.5 4.5c-1.4 0-2.8.1-4.1.3zM16 65.9c.1 1.4.2 2.7.3 4.1l-2.6 2.6c-11.5 11.5-11.5 30.3-.1 41.7 11.5 11.5 30.2 11.5 41.7 0l2.6-2.6c1.3.2 2.7.3 4.1.3l-4.5 4.5c-12.7 12.7-33.4 12.8-46.1.1-12.7-12.7-12.7-33.4.1-46.1l4.5-4.6zm53.9 45.7 2.6 2.6c11.5 11.5 30.3 11.5 41.7 0 11.5-11.5 11.5-30.2-.1-41.7l-2.6-2.6c.2-1.3.3-2.7.3-4.1l4.5 4.5c12.7 12.7 12.8 33.4.1 46.1-12.7 12.7-33.4 12.7-46.1-.1l-4.5-4.5c1.4.1 2.8 0 4.1-.2z"/>
  <path fill="#e2574c" d="M64 0C28.7 0 0 28.7 0 64s28.6 64 64 64c35.3 0 64-28.7 64-64S99.3 0 64 0zm0 96c-17.7 0-32-14.3-32-32s14.3-32 32-32 32 14.3 32 32-14.3 32-32 32z"/>
  <path fill="#d95449" d="M64 24.3c-21.9 0-39.7 17.8-39.7 39.7 0 21.9 17.8 39.7 39.7 39.7 21.9 0 39.7-17.8 39.7-39.7 0-21.9-17.8-39.7-39.7-39.7zM64 96c-17.7 0-32-14.3-32-32s14.3-32 32-32 32 14.3 32 32-14.3 32-32 32z"/>
  <path fill="#e5685e" d="M64 9C33.6 9 9 33.6 9 64s24.6 55 55 55 55-24.6 55-55S94.4 9 64 9zm0 106c-28.2 0-51-22.8-51-51s22.8-51 51-51 51 22.8 51 51-22.8 51-51 51z"/>
  <path d="M49.1 92.3c-5.8-3-10.5-7.8-13.5-13.5L12.5 102c3.8 5.1 8.3 9.7 13.5 13.5l23.1-23.2zM78.8 35.6c5.8 3 10.5 7.7 13.5 13.5L115.5 26c-3.8-5.1-8.4-9.7-13.5-13.5L78.8 35.6zM12.5 26l23.1 23.1c3-5.8 7.7-10.5 13.5-13.5L26 12.5c-5.1 3.8-9.7 8.4-13.5 13.5zM115.5 102 92.4 78.9c-3 5.8-7.7 10.5-13.5 13.5l23.1 23.1c5.1-3.8 9.7-8.4 13.5-13.5z" class="st4"/>
  <path d="m84.5 30-5.6 5.6c5.8 3 10.5 7.7 13.5 13.5l5.6-5.6C94.6 38 90 33.3 84.5 30zM35.6 78.8 30 84.5C33.3 90 38 94.6 43.5 98l5.6-5.6c-5.7-3.1-10.4-7.8-13.5-13.6zM78.9 92.4l5.6 5.6C90 94.7 94.6 90 98 84.5l-5.6-5.6c-3.1 5.7-7.8 10.4-13.5 13.5zM49.2 35.7 43.5 30C38 33.4 33.4 38 30 43.5l5.6 5.6c3.1-5.7 7.8-10.4 13.6-13.4z" class="st5"/>
  <path d="m21.8 92.7-2.9 2.9c3.7 5.2 8.2 9.8 13.5 13.5l2.9-2.9c-5.3-3.7-9.9-8.2-13.5-13.5zM106.2 92.7c-3.6 5.3-8.2 9.9-13.5 13.5l2.9 2.9c5.2-3.7 9.8-8.3 13.5-13.5l-2.9-2.9zM21.8 35.3c3.6-5.3 8.2-9.9 13.5-13.5L32.5 19c-5.2 3.7-9.8 8.3-13.5 13.5l2.8 2.8zM106.2 35.3l2.9-2.9c-3.7-5.2-8.3-9.8-13.5-13.5l-2.9 2.9c5.3 3.6 9.8 8.2 13.5 13.5z" class="st6"/>
</svg>
