<svg xmlns="http://www.w3.org/2000/svg" data-name="Layer 1" viewBox="0 0 913.885 792.886">
  <path fill="#FFFFFF" d="M913.885 396.443a179.92 169.8 0 0 0-148.623-167.126A179.853 169.736 0 0 0 456.449 63.773a179.803 169.689 0 0 0-308.763 165.67 179.853 169.736 0 0 0 0 334 179.853 169.736 0 0 0 308.763 165.67A179.803 169.689 0 0 0 765.262 563.57a179.92 169.8 0 0 0 148.623-167.126zm-446.004 135.17v29.472h-55.319V448.16a32.655 30.818 0 0 0-32.722-30.818H260.184v-52.207H379.84a32.672 30.834 0 0 0 32.655-30.834V221.328h55.32v112.91a32.688 30.85 0 0 0 32.721 30.833h119.64v52.207h-119.64a32.672 30.834 0 0 0-32.671 30.818v83.453z"/>
</svg>
