<svg fill-rule="evenodd" height="96pt" overflow="visible" stroke-linejoin="bevel" stroke-width="0.501" version="1.1" viewBox="0 0 96 96" width="96pt" xmlns="http://www.w3.org/2000/svg" xmlns:xlink="http://www.w3.org/1999/xlink"><defs><marker id="DefaultArrow2" markerHeight="1" markerUnits="strokeWidth" markerWidth="1" orient="auto" overflow="visible" viewBox="0 0 1 1"><g transform="scale(0.0092592592)"><path d="M -9 54 L -9 -54 L 117 0 z"/></g></marker><marker id="DefaultArrow3" markerHeight="1" markerUnits="strokeWidth" markerWidth="1" orient="auto" overflow="visible" viewBox="0 0 1 1"><g transform="scale(0.0092592592)"><path d="M -27 54 L -9 0 L -27 -54 L 135 0 z"/></g></marker><marker id="DefaultArrow4" markerHeight="1" markerUnits="strokeWidth" markerWidth="1" orient="auto" overflow="visible" viewBox="0 0 1 1"><g transform="scale(0.0092592592)"><path d="M -9,0 L -9,-45 C -9,-51.708 2.808,-56.580 9,-54 L 117,-9 C 120.916,-7.369 126.000,-4.242 126,0 C 126,4.242 120.916,7.369 117,9 L 9,54 C 2.808,56.580 -9,51.708 -9,45 z"/></g></marker><marker id="DefaultArrow5" markerHeight="1" markerUnits="strokeWidth" markerWidth="1" orient="auto" overflow="visible" viewBox="0 0 1 1"><g transform="scale(0.0092592592)"><path d="M -54, 0 C -54,29.807 -29.807,54 0,54 C 29.807,54 54,29.807 54,0 C 54,-29.807 29.807,-54 0,-54 C -29.807,-54 -54,-29.807 -54,0 z"/></g></marker><marker id="DefaultArrow6" markerHeight="1" markerUnits="strokeWidth" markerWidth="1" orient="auto" overflow="visible" viewBox="0 0 1 1"><g transform="scale(0.0092592592)"><path d="M -63,0 L 0,63 L 63,0 L 0,-63 z"/></g></marker><marker id="DefaultArrow7" markerHeight="1" markerUnits="strokeWidth" markerWidth="1" orient="auto" overflow="visible" viewBox="0 0 1 1"><g transform="scale(0.0092592592)"><path d="M 18,-54 L 108,-54 L 63,0 L 108,54 L 18, 54 L -36,0 z"/></g></marker><marker id="DefaultArrow8" markerHeight="1" markerUnits="strokeWidth" markerWidth="1" orient="auto" overflow="visible" viewBox="0 0 1 1"><g transform="scale(0.0092592592)"><path d="M -36,0 L 18,-54 L 54,-54 L 18,-18 L 27,-18 L 63,-54 L 99,-54 L 63,-18 L 72,-18 L 108,-54 L 144,-54 L 90,0 L 144,54 L 108,54 L 72,18 L 63,18 L 99,54 L 63,54 L 27,18 L 18,18 L 54,54 L 18,54 z"/></g></marker><marker id="DefaultArrow9" markerHeight="1" markerUnits="strokeWidth" markerWidth="1" orient="auto" overflow="visible" viewBox="0 0 1 1"><g transform="scale(0.0092592592)"><path d="M 0,45 L -45,0 L 0, -45 L 45, 0 z M 0, 63 L-63, 0 L 0, -63 L 63, 0 z"/></g></marker><filter id="StainedFilter"><feBlend in="SourceGraphic" in2="BackgroundImage" mode="multiply" result="blend"/><feComposite in="blend" in2="SourceAlpha" operator="in" result="comp"/></filter><filter id="BleachFilter"><feBlend in="SourceGraphic" in2="BackgroundImage" mode="screen" result="blend"/><feComposite in="blend" in2="SourceAlpha" operator="in" result="comp"/></filter><filter id="InvertTransparencyBitmapFilter"><feComponentTransfer><feFuncR amplitude="1.055" exponent=".416666666" offset="-0.055" type="gamma"/><feFuncG amplitude="1.055" exponent=".416666666" offset="-0.055" type="gamma"/><feFuncB amplitude="1.055" exponent=".416666666" offset="-0.055" type="gamma"/></feComponentTransfer><feComponentTransfer><feFuncR intercept="1" slope="-1" type="linear"/><feFuncG intercept="1" slope="-1" type="linear"/><feFuncB intercept="1" slope="-1" type="linear"/><feFuncA intercept="0" slope="1" type="linear"/></feComponentTransfer><feComponentTransfer><feFuncR amplitude="1" exponent="2.4" offset="0" type="gamma"/><feFuncG amplitude="1" exponent="2.4" offset="0" type="gamma"/><feFuncB amplitude="1" exponent="2.4" offset="0" type="gamma"/></feComponentTransfer></filter></defs><g fill="none" font-family="Times New Roman" font-size="16" id="Document" stroke="black" transform="scale(1 -1)"><g id="Spread" transform="translate(0 -96)"><g id="Layer 1"><path d="M 20.024,95.67 C 23.548,97.401 28.148,92.602 31.551,89.866 C 35.227,86.912 48.103,86.986 52.005,89.759 C 54.4,91.462 58.983,97.084 61.576,96.161 C 64.43,95.145 65.275,73.288 71.346,59.122 C 86.431,23.922 83.654,-3.784 42.08,0.591 C -0.106,-5.168 -0.605,32.353 12.346,61.768 C 17.348,73.129 18.435,95.478 20.024,95.67 Z" fill="#607c92" marker-end="none" marker-start="none" stroke="none" stroke-linecap="round" stroke-linejoin="round" stroke-miterlimit="79.8403193612775" stroke-width="0.5"/><path d="M 26.827,83.017 C 30.251,83.017 33.033,80.235 33.033,76.811 C 33.033,73.387 30.251,70.605 26.827,70.605 C 23.403,70.605 20.621,73.387 20.621,76.811 C 20.621,80.235 23.403,83.017 26.827,83.017 Z" fill="#ffffff" marker-end="none" marker-start="none" stroke="none" stroke-linecap="round" stroke-linejoin="round" stroke-miterlimit="79.8403193612775" stroke-width="1.5"/><path d="M 54.922,83.018 C 58.346,83.018 61.128,80.236 61.128,76.812 C 61.128,73.388 58.346,70.606 54.922,70.606 C 51.498,70.606 48.716,73.388 48.716,76.812 C 48.716,80.236 51.498,83.018 54.922,83.018 Z" fill="#ffffff" marker-end="none" marker-start="none" stroke="none" stroke-linecap="round" stroke-linejoin="round" stroke-miterlimit="79.8403193612775" stroke-width="1.5"/><path d="M 18.206,87.793 L 18.215,87.854 C 18.444,89.372 18.655,90.739 18.857,91.889 L 19.118,93.258 L 19.237,93.25 C 20.512,93.035 21.505,91.947 21.552,90.605 C 21.605,89.071 20.402,87.782 18.868,87.729 C 18.676,87.722 18.488,87.735 18.306,87.766 L 18.206,87.793 Z" fill="#94adc2" marker-end="none" marker-start="none" stroke="none" stroke-linecap="round" stroke-linejoin="round" stroke-miterlimit="79.8403193612775" stroke-width="0"/><path d="M 61.335,90.724 C 61.295,91.874 61.962,92.887 62.945,93.343 L 63.068,93.387 L 63.452,91.937 C 63.596,91.333 63.739,90.676 63.883,89.973 L 64.259,88.046 L 64.211,88.04 C 62.677,87.987 61.388,89.19 61.335,90.724 Z" fill="#94adc2" marker-end="none" marker-start="none" stroke="none" stroke-linecap="round" stroke-linejoin="round" stroke-miterlimit="79.8403193612775" stroke-width="0"/><path d="M 40.804,72.634 C 39.435,72.673 38.135,73.137 37.224,73.844 C 36.979,74.035 36.935,74.388 37.125,74.634 C 37.316,74.879 37.669,74.923 37.915,74.733 C 38.62,74.185 39.685,73.792 40.836,73.759 C 41.979,73.726 43.177,74.048 44.175,74.888 C 44.413,75.088 44.768,75.057 44.968,74.82 C 45.168,74.582 45.137,74.227 44.9,74.027 C 43.659,72.984 42.181,72.594 40.804,72.634 Z" fill="#364858" fill-rule="evenodd" marker-end="none" marker-start="none" stroke="none" stroke-miterlimit="79.8403193612775" stroke-width="0.5"/><path d="M 57.604,66.787 L 51.455,68.421 C 51.155,68.501 50.976,68.809 51.056,69.109 C 51.136,69.409 51.444,69.588 51.744,69.508 L 57.893,67.874 C 58.193,67.794 58.372,67.486 58.292,67.186 C 58.212,66.886 57.904,66.707 57.604,66.787 Z" fill="#94adc2" fill-rule="evenodd" marker-end="none" marker-start="none" stroke="none" stroke-miterlimit="79.8403193612775" stroke-width="0.5"/><path d="M 57.541,63.85 L 51.081,66.419 C 50.792,66.534 50.651,66.861 50.766,67.149 C 50.881,67.438 51.208,67.579 51.496,67.464 L 57.956,64.895 C 58.245,64.78 58.386,64.453 58.271,64.165 C 58.156,63.876 57.829,63.735 57.541,63.85 Z" fill="#94adc2" fill-rule="evenodd" marker-end="none" marker-start="none" stroke="none" stroke-miterlimit="79.8403193612775" stroke-width="0.5"/><path d="M 23.579,67.417 C 23.499,67.717 23.678,68.025 23.978,68.105 L 30.127,69.74 C 30.427,69.82 30.735,69.641 30.815,69.341 C 30.895,69.041 30.716,68.733 30.416,68.653 L 24.267,67.018 C 23.967,66.938 23.659,67.117 23.579,67.417 Z" fill="#94adc2" fill-rule="evenodd" marker-end="none" marker-start="none" stroke="none" stroke-miterlimit="79.8403193612775" stroke-width="0.5"/><path d="M 23.6,64.397 C 23.485,64.685 23.626,65.013 23.915,65.127 L 30.375,67.695 C 30.663,67.81 30.991,67.669 31.105,67.38 C 31.22,67.092 31.079,66.764 30.79,66.65 L 24.33,64.082 C 24.042,63.967 23.714,64.108 23.6,64.397 Z" fill="#94adc2" fill-rule="evenodd" marker-end="none" marker-start="none" stroke="none" stroke-miterlimit="79.8403193612775" stroke-width="0.5"/><path d="M 30.029,84.066 L 30.029,86.479 C 30.029,86.789 30.281,87.041 30.592,87.041 C 30.902,87.041 31.154,86.789 31.154,86.479 L 31.154,84.066 C 31.154,83.755 30.902,83.503 30.592,83.503 C 30.281,83.503 30.029,83.755 30.029,84.066 Z" fill="#94adc2" fill-rule="evenodd" marker-end="none" marker-start="none" stroke="none" stroke-miterlimit="79.8403193612775" stroke-width="0.5"/><path d="M 27.85,84.455 L 27.85,86.868 C 27.85,87.178 28.102,87.43 28.413,87.43 C 28.723,87.43 28.975,87.178 28.975,86.868 L 28.975,84.455 C 28.975,84.144 28.723,83.892 28.413,83.892 C 28.102,83.892 27.85,84.144 27.85,84.455 Z" fill="#94adc2" fill-rule="evenodd" marker-end="none" marker-start="none" stroke="none" stroke-miterlimit="79.8403193612775" stroke-width="0.5"/><path d="M 74.969,2.626 C 70.8,4.626 68.235,8.293 67.095,12.214 C 65.965,16.104 66.164,20.438 67.669,24.221 C 68.434,26.144 70.617,27.084 72.54,26.319 C 74.463,25.554 75.403,23.371 74.638,21.448 C 72.924,17.14 74.078,11.372 78.214,9.387 C 80.923,8.087 83.954,8.89 85.815,10.817 C 87.496,12.558 88.102,15.032 86.06,17.739 C 84.814,19.391 85.144,21.744 86.797,22.991 C 88.449,24.237 90.802,23.907 92.049,22.254 C 96.506,16.343 95.226,9.767 91.21,5.608 C 87.388,1.649 80.944,-0.241 74.969,2.626 Z" fill="#607c92" fill-rule="evenodd" marker-end="none" marker-start="none" stroke="none" stroke-miterlimit="79.8403193612775" stroke-width="0.5"/><path d="M 51.543,84.066 L 51.543,86.479 C 51.543,86.789 51.795,87.041 52.106,87.041 C 52.416,87.041 52.668,86.789 52.668,86.479 L 52.668,84.066 C 52.668,83.755 52.416,83.503 52.106,83.503 C 51.795,83.503 51.543,83.755 51.543,84.066 Z" fill="#94adc2" fill-rule="evenodd" marker-end="none" marker-start="none" stroke="none" stroke-miterlimit="79.8403193612775" stroke-width="0.5"/><path d="M 53.722,84.455 L 53.722,86.868 C 53.722,87.178 53.974,87.43 54.285,87.43 C 54.595,87.43 54.847,87.178 54.847,86.868 L 54.847,84.455 C 54.847,84.144 54.595,83.892 54.285,83.892 C 53.974,83.892 53.722,84.144 53.722,84.455 Z" fill="#94adc2" fill-rule="evenodd" marker-end="none" marker-start="none" stroke="none" stroke-miterlimit="79.8403193612775" stroke-width="0.5"/><path d="M 19.871,76.811 C 19.871,80.649 22.988,83.767 26.827,83.767 C 30.665,83.767 33.783,80.649 33.783,76.811 C 33.783,72.972 30.665,69.855 26.827,69.855 C 22.988,69.855 19.871,72.972 19.871,76.811 Z M 32.283,76.811 C 32.283,79.82 29.836,82.267 26.827,82.267 C 23.817,82.267 21.371,79.82 21.371,76.811 C 21.371,73.801 23.817,71.355 26.827,71.355 C 29.836,71.355 32.283,73.801 32.283,76.811 Z" fill="#364858" fill-rule="evenodd" marker-end="none" marker-start="none" stroke="none" stroke-miterlimit="79.8403193612775" stroke-width="0.5"/><path d="M 47.966,76.812 C 47.966,80.65 51.083,83.768 54.922,83.768 C 58.76,83.768 61.878,80.65 61.878,76.812 C 61.878,72.973 58.76,69.856 54.922,69.856 C 51.083,69.856 47.966,72.973 47.966,76.812 Z M 60.378,76.812 C 60.378,79.821 57.931,82.268 54.922,82.268 C 51.912,82.268 49.466,79.821 49.466,76.812 C 49.466,73.802 51.912,71.356 54.922,71.356 C 57.931,71.356 60.378,73.802 60.378,76.812 Z" fill="#364858" fill-rule="evenodd" marker-end="none" marker-start="none" stroke="none" stroke-miterlimit="79.8403193612775" stroke-width="0.5"/><path d="M 54.689,74.999 C 55.687,74.999 56.497,74.189 56.497,73.191 C 56.497,72.193 55.687,71.383 54.689,71.383 C 53.691,71.383 52.881,72.193 52.881,73.191 C 52.881,74.189 53.691,74.999 54.689,74.999 Z" fill="#364858" marker-end="none" marker-start="none" stroke="none" stroke-linecap="round" stroke-linejoin="round" stroke-miterlimit="79.8403193612775" stroke-width="0.5"/><path d="M 26.963,74.999 C 27.961,74.999 28.771,74.189 28.771,73.191 C 28.771,72.193 27.961,71.383 26.963,71.383 C 25.965,71.383 25.155,72.193 25.155,73.191 C 25.155,74.189 25.965,74.999 26.963,74.999 Z" fill="#364858" marker-end="none" marker-start="none" stroke="none" stroke-linecap="round" stroke-linejoin="round" stroke-miterlimit="79.8403193612775" stroke-width="0.5"/><path d="M 48.247,78.702 C 45.947,80.54 43.186,81.244 40.56,81.173 C 37.924,81.102 35.476,80.25 33.836,79.044 C 33.502,78.799 33.032,78.871 32.787,79.204 C 32.542,79.538 32.614,80.008 32.947,80.253 C 34.861,81.659 37.613,82.594 40.519,82.672 C 43.436,82.751 46.56,81.969 49.184,79.873 C 49.507,79.615 49.56,79.143 49.301,78.819 C 49.043,78.496 48.571,78.443 48.247,78.702 Z" fill="#364858" fill-rule="evenodd" marker-end="none" marker-start="none" stroke="none" stroke-miterlimit="79.8403193612775" stroke-width="0.5"/><path d="M 40.545,70.115 L 40.545,72.996 C 40.545,73.306 40.797,73.558 41.108,73.558 C 41.418,73.558 41.67,73.306 41.67,72.996 L 41.67,70.115 C 41.67,69.804 41.418,69.552 41.108,69.552 C 40.797,69.552 40.545,69.804 40.545,70.115 Z" fill="#364858" fill-rule="evenodd" marker-end="none" marker-start="none" stroke="none" stroke-miterlimit="79.8403193612775" stroke-width="0.5"/><path d="M 37.421,68.138 C 37.274,68.411 37.377,68.753 37.651,68.899 L 40.842,70.61 C 40.999,70.695 41.187,70.699 41.349,70.623 L 44.463,69.145 C 44.743,69.012 44.863,68.676 44.73,68.395 C 44.597,68.115 44.261,67.995 43.98,68.128 L 41.123,69.485 L 38.182,67.908 C 37.909,67.761 37.567,67.864 37.421,68.138 Z" fill="#364858" fill-rule="evenodd" marker-end="none" marker-start="none" stroke="none" stroke-miterlimit="79.8403193612775" stroke-width="0.5"/><path d="M 20.271,52.49 L 20.271,6.385 L 61.07,6.385 L 61.07,52.49 L 20.271,52.49 Z" fill="#d8ccbc" marker-end="none" marker-start="none" stroke="none" stroke-linecap="round" stroke-linejoin="miter" stroke-miterlimit="79.8403193612775" stroke-width="0.75"/><path d="M 19.973,58.716 C 23.496,58.716 26.356,55.856 26.356,52.333 C 26.356,48.81 23.496,45.95 19.973,45.95 C 16.45,45.95 13.59,48.81 13.59,52.333 C 13.59,55.856 16.45,58.716 19.973,58.716 Z" fill="#ffffff" marker-end="none" marker-start="none" stroke="none" stroke-linecap="round" stroke-linejoin="round" stroke-miterlimit="79.8403193612775" stroke-width="0.75"/><path d="M 19.971,58.717 L 19.971,46.264 L 54.998,46.264 L 54.998,58.717 L 19.971,58.717 Z" fill="#ffffff" marker-end="none" marker-start="none" stroke="none" stroke-linecap="round" stroke-linejoin="miter" stroke-miterlimit="79.8403193612775" stroke-width="0.75"/><path d="M 54.688,58.715 C 58.211,58.715 61.071,55.855 61.071,52.332 C 61.071,48.809 58.211,45.949 54.688,45.949 C 51.165,45.949 48.305,48.809 48.305,52.332 C 48.305,55.855 51.165,58.715 54.688,58.715 Z" fill="#d8ccbc" marker-end="none" marker-start="none" stroke="none" stroke-linecap="round" stroke-linejoin="miter" stroke-miterlimit="79.8403193612775" stroke-width="0.75"/><path d="M 26.506,12.768 C 29.947,12.768 32.74,9.937 32.74,6.45 C 32.74,2.963 29.947,0.132 26.506,0.132 C 23.065,0.132 20.272,2.963 20.272,6.45 C 20.272,9.937 23.065,12.768 26.506,12.768 Z" fill="#d8ccbc" marker-end="none" marker-start="none" stroke="none" stroke-linecap="round" stroke-linejoin="miter" stroke-miterlimit="79.8403193612775" stroke-width="0.75"/><path d="M 61.756,12.767 C 65.243,12.767 68.074,9.936 68.074,6.449 C 68.074,2.962 65.243,0.131 61.756,0.131 C 58.269,0.131 55.438,2.962 55.438,6.449 C 55.438,9.936 58.269,12.767 61.756,12.767 Z" fill="#d8ccbc" marker-end="none" marker-start="none" stroke="none" stroke-linecap="round" stroke-linejoin="miter" stroke-miterlimit="79.8403193612775" stroke-width="0.75"/><path d="M 25.733,18.711 L 25.733,0.132 L 61.07,0.132 L 61.07,18.711 L 25.733,18.711 Z" fill="#d8ccbc" marker-end="none" marker-start="none" stroke="none" stroke-linecap="round" stroke-linejoin="miter" stroke-miterlimit="79.8403193612775" stroke-width="0.75"/><path d="M 16.778,42.665 C 19.938,35.276 32.749,38.228 33.513,35.927 C 35.037,31.336 22.265,27.63 18.516,28.537 C 18.516,28.537 17.973,28.537 17.864,28.537 C 14.446,30.473 14.219,38.868 15.473,42.012 C 15.927,42.24 16.622,42.182 16.778,42.665 Z" fill="#607c92" marker-end="none" marker-start="none" stroke="none" stroke-linecap="round" stroke-linejoin="round" stroke-miterlimit="79.8403193612775" stroke-width="0.75"/><path d="M 64.025,42.664 C 60.865,35.276 48.054,38.228 47.29,35.927 C 45.766,31.336 58.537,27.631 62.286,28.538 C 62.286,28.538 62.83,28.538 62.938,28.538 C 66.356,30.473 66.583,38.868 65.329,42.012 C 64.875,42.24 64.18,42.181 64.025,42.664 Z" fill="#607c92" marker-end="none" marker-start="none" stroke="none" stroke-linecap="round" stroke-linejoin="round" stroke-miterlimit="79.8403193612775" stroke-width="0.75"/></g></g></g></svg>
