<svg xmlns="http://www.w3.org/2000/svg" xml:space="preserve" viewBox="0 0 96 96"><path fill="#0d52bf" d="M72.4 5.61H24.33c-7.12 0-12.91 5.79-12.91 12.91v3.6h8c2.48 0 4.5 2.02 4.5 4.5s-2.02 4.5-4.5 4.5h-8v33.76h8c2.48 0 4.5 2.02 4.5 4.5s-2.02 4.5-4.5 4.5h-8v3.6c0 7.12 5.79 12.91 12.91 12.91H72.4c7.12 0 12.91-5.79 12.91-12.91V18.52c0-7.12-5.79-12.91-12.91-12.91zm-8.29 64.85a2.496 2.496 0 0 1-2.9-2.02c-1.1-6.22-6.5-10.73-12.84-10.73s-11.75 4.51-12.85 10.73a2.5 2.5 0 0 1-4.92-.88c1.52-8.61 9-14.85 17.77-14.85s16.24 6.24 17.76 14.85c.24 1.36-.66 2.66-2.02 2.9zM36.53 37.34c0-6.53 5.31-11.84 11.84-11.84 6.52 0 11.84 5.31 11.84 11.84s-5.32 11.84-11.84 11.84c-6.53 0-11.84-5.31-11.84-11.84z"/><circle fill="#0d52bf" cx="48.37" cy="37.34" r="6.84" transform="rotate(-45.001 48.37 37.34)"/><path fill="#0d52bf" d="M21.92 26.62a2.5 2.5 0 0 1-2.5 2.5h-11a2.5 2.5 0 0 1 0-5h11a2.5 2.5 0 0 1 2.5 2.5zM21.92 69.38a2.5 2.5 0 0 1-2.5 2.5h-11a2.5 2.5 0 0 1 0-5h11a2.5 2.5 0 0 1 2.5 2.5z"/></svg>
