<?xml version="1.0" encoding="UTF-8" standalone="no"?>
<svg
   viewBox="0 0 25.930794 23.996971"
   version="1.1"
   id="svg32"
   sodipodi:docname="security-logo.svg"
   width="25.930794"
   height="23.996971"
   inkscape:version="1.2 (dc2aeda, 2022-05-15)"
   xmlns:inkscape="http://www.inkscape.org/namespaces/inkscape"
   xmlns:sodipodi="http://sodipodi.sourceforge.net/DTD/sodipodi-0.dtd"
   xmlns="http://www.w3.org/2000/svg"
   xmlns:svg="http://www.w3.org/2000/svg">
  <sodipodi:namedview
     id="namedview34"
     pagecolor="#ffffff"
     bordercolor="#000000"
     borderopacity="0.25"
     inkscape:showpageshadow="2"
     inkscape:pageopacity="0.0"
     inkscape:pagecheckerboard="0"
     inkscape:deskcolor="#d1d1d1"
     showgrid="false"
     inkscape:zoom="7.375"
     inkscape:cx="12.949153"
     inkscape:cy="11.932203"
     inkscape:window-width="1792"
     inkscape:window-height="1002"
     inkscape:window-x="0"
     inkscape:window-y="25"
     inkscape:window-maximized="0"
     inkscape:current-layer="svg32" />
  <defs
     id="defs21">
    <style
       id="style19">.cls-1{fill:#d8e1ef;}.cls-2{fill:#0593ff;}</style>
  </defs>
  <title
     id="title23" />
  <g
     data-name="Home Shield"
     id="Home_Shield"
     transform="translate(-3.0655787,-4.0030286)">
    <path
       class="cls-1"
       d="m 26.45,9.11 -10,-5 a 1,1 0 0 0 -0.9,0 l -10,5 A 1,1 0 0 0 5,10 v 15 a 3,3 0 0 0 3,3 h 16 a 3,3 0 0 0 3,-3 V 10 A 1,1 0 0 0 26.45,9.11 Z"
       id="path25" />
    <path
       class="cls-2"
       d="m 21,14 c -3.24,0 -4.08,-1.41 -4.11,-1.45 A 1,1 0 0 0 16,12 0.94,0.94 0 0 0 15.1,12.52 c 0,0 -0.66,1.1 -2.92,1.4 A 9,9 0 0 1 11,14 1,1 0 0 0 10,15 v 1.94 a 7,7 0 0 0 4.4,6.5 l 1.23,0.49 a 1,1 0 0 0 0.74,0 L 17.6,23.44 A 7,7 0 0 0 22,16.94 V 15 a 1,1 0 0 0 -1,-1 z"
       id="path27" />
    <path
       class="cls-2"
       d="M 28,12 A 0.93,0.93 0 0 1 27.55,11.89 L 16,6.12 4.45,11.89 a 1,1 0 0 1 -0.9,-1.78 l 12,-6 a 1,1 0 0 1 0.9,0 l 12,6 A 1,1 0 0 1 28.89,11.45 1,1 0 0 1 28,12 Z"
       id="path29" />
  </g>
</svg>
